PathFileType	4	(X/Y/Z)	C:/Users/opensim2020/Desktop/walking_exp_matlab/subject06_walking15_straight_03.trc																																																																																																																																											
DataRate	CameraRate	NumFrames	NumMarkers	Units	OrigDataRate	OrigDataStartFrame	OrigNumFrames																																																																																																																																							
100	100	8	47	mm	100	2185	193																																																																																																																																							
Frame#	Time	LFHD			RFHD			LBHD			RBHD			C7			T10			CLAV			STRN			RBAK			LSHO			LUPA			LELB			LFRM			LWRA			LWRB			LFIN			RSHO			RUPA			RELB			RFRM			RWRA			RWRB			RFIN			LASI			RASI			LPSI			RPSI			LTHI			LKNE			LTIB			LANK			LHEE			LTOE			RTHI			RKNE			RTIB			RANK			RHEE			RTOE			*39			*40			*41			*42			*43			*44			*45			*46		
		X1	Y1	Z1	X2	Y2	Z2	X3	Y3	Z3	X4	Y4	Z4	X5	Y5	Z5	X6	Y6	Z6	X7	Y7	Z7	X8	Y8	Z8	X9	Y9	Z9	X10	Y10	Z10	X11	Y11	Z11	X12	Y12	Z12	X13	Y13	Z13	X14	Y14	Z14	X15	Y15	Z15	X16	Y16	Z16	X17	Y17	Z17	X18	Y18	Z18	X19	Y19	Z19	X20	Y20	Z20	X21	Y21	Z21	X22	Y22	Z22	X23	Y23	Z23	X24	Y24	Z24	X25	Y25	Z25	X26	Y26	Z26	X27	Y27	Z27	X28	Y28	Z28	X29	Y29	Z29	X30	Y30	Z30	X31	Y31	Z31	X32	Y32	Z32	X33	Y33	Z33	X34	Y34	Z34	X35	Y35	Z35	X36	Y36	Z36	X37	Y37	Z37	X38	Y38	Z38	X39	Y39	Z39	X40	Y40	Z40	X41	Y41	Z41	X42	Y42	Z42	X43	Y43	Z43	X44	Y44	Z44	X45	Y45	Z45	X46	Y46	Z46	X47	Y47	Z47
																																																																																																																																														
49	0.48	-621.71265	1653.67822	1322.72693	-619.52374	1648.02673	1454.54431	-757.19617	1604.3844	1327.02612	-753.17291	1603.96118	1456.52979	-764.13104	1452.51624	1385.72644	-822.81445	1127.41809	1402.04614	-660.28918	1366.66296	1392.48389	-635.52502	1189.71216	1390.83472	-853.03168	1291.35974	1463.35181	-705.98041	1399.59485	1228.89551	-670.22919	1203.20935	1153.52087	-640.53033	1094.39905	1136.88733	-547.70172	975.66534	1117.57898	-438.88614	910.24573	1163.28967	-486.56909	872.99469	1126.07959	-407.86337	829.09888	1124.8501	-709.76239	1407.08179	1550.39758	-783.14893	1220.82739	1639.93176	-795.47577	1098.99976	1654.02881	-802.57635	979.19867	1674.03284	-767.04187	831.37268	1648.75391	-822.284	842.44336	1685.4353	-800.16449	761.27039	1690.1958	-651.4726	957.48846	1297.57117	-652.00671	969.32764	1518.86108	-809.05316	991.68463	1328.01697	-803.03101	992.86542	1496.09753	-752.34485	649.02258	1251.84851	-781.00024	486.77588	1276.64221	-855.07477	239.17717	1291.04724	-881.32025	70.55788	1344.95251	-923.69183	59.56406	1390.8562	-740.43182	39.6917	1342.88	-632.05396	646.3645	1590.17139	-582.20508	530.57001	1568.4071	-621.20551	270.05222	1563.98572	-631.33911	84.27258	1521.86707	-664.01062	60.10709	1471.03943	-484.03748	45.31304	1544.18103	-719.34906	1698.36267	1381.98254	NaN	NaN	NaN	NaN	NaN	NaN	NaN	NaN	NaN	NaN	NaN	NaN	NaN	NaN	NaN	NaN	NaN	NaN	NaN	NaN	NaN
50	0.49	-612.68036	1652.58337	1323.51587	-610.79559	1646.72693	1455.32861	-748.1637	1603.27417	1327.46204	-744.46649	1602.65979	1456.99353	-754.72565	1451.24854	1385.87402	-814.00006	1126.0946	1401.92603	-651.34375	1365.48193	1392.84265	-626.5368	1188.50977	1390.97327	-844.33209	1290.08789	1463.06177	-696.70764	1398.49231	1229.22241	-659.91742	1202.55005	1153.63391	-629.2179	1093.99353	1136.84229	-533.33179	977.86237	1117.98779	-422.39941	916.38989	1163.95959	-468.73032	877.30811	1127.07959	-388.67953	835.90436	1126.27393	-701.29498	1405.69128	1550.71118	-775.80548	1219.73804	1639.72937	-788.95673	1097.99292	1653.72095	-796.79938	978.28107	1673.9978	-762.21466	830.12421	1649.19543	-817.63245	841.71021	1685.54895	-796.09894	760.31238	1690.57275	-642.50903	956.03741	1297.88806	-643.21063	968.07275	1518.85449	-800.29791	990.38098	1328.24658	-794.03314	991.59467	1496.46313	-745.11182	647.86255	1252.29089	-775.23883	485.77811	1277.23364	-852.11072	239.04408	1291.41125	-880.63885	70.83525	1345.34326	-923.29401	60.08998	1391.26428	-740.07391	39.61065	1343.04358	-625.07941	644.24481	1590.44849	-574.43268	528.82233	1568.13879	-601.74091	267.45697	1563.63647	-601.95886	81.31701	1521.99255	-633.16113	56.5815	1470.90515	-453.06039	45.95811	1544.08765	-710.50049	1697.16663	1382.64893	NaN	NaN	NaN	NaN	NaN	NaN	NaN	NaN	NaN	NaN	NaN	NaN	NaN	NaN	NaN	NaN	NaN	NaN	NaN	NaN	NaN
51	0.5	-603.47766	1651.39832	1324.38049	-602.05377	1645.32532	1456.20203	-739.06641	1602.00562	1327.91589	-735.70612	1601.22314	1457.44189	-746.24402	1450.25208	1386.55066	-804.94037	1124.74438	1401.94055	-642.31818	1364.13696	1393.18689	-617.41052	1187.16174	1391.19995	-835.37292	1288.59277	1462.82153	-687.34717	1397.23804	1229.64111	-649.7583	1201.71069	1153.79468	-618.02142	1093.45471	1136.86182	-519.48907	979.96216	1118.08887	-406.38507	922.40717	1164.30347	-451.37845	881.62695	1128.08496	-370.05887	842.87158	1127.66504	-692.64166	1404.22229	1551.11011	-768.38	1218.55969	1639.61536	-781.9502	1096.95117	1653.74524	-790.96759	977.32294	1674.04651	-757.08716	828.79742	1649.7229	-812.66827	840.85107	1685.73938	-791.73242	759.24609	1690.93408	-634.26123	954.39374	1297.48633	-634.10303	966.69836	1518.85742	-791.44788	988.98657	1328.49536	-785.29803	990.38934	1496.79077	-737.80231	646.65106	1252.65527	-769.4599	484.82632	1277.81116	-849.41797	238.84862	1291.8125	-880.07953	71.16651	1345.69348	-922.896	60.66775	1391.63574	-739.72913	39.52031	1343.27856	-617.95929	642.1311	1590.54993	-566.87524	526.72528	1567.52625	-582.73206	265.22742	1563.36621	-572.94128	79.22965	1522.39783	-603.17181	54.51009	1471.43018	-423.25519	47.03405	1544.42236	-701.505	1695.83643	1383.2876	NaN	NaN	NaN	NaN	NaN	NaN	NaN	NaN	NaN	NaN	NaN	NaN	NaN	NaN	NaN	NaN	NaN	NaN	NaN	NaN	NaN
52	0.51	-594.27295	1650.09802	1325.27917	-593.23993	1643.84265	1457.18469	-729.79578	1600.63611	1328.35095	-726.87061	1599.64465	1457.91125	-736.63599	1448.66956	1387.06018	-795.83234	1123.12927	1401.99646	-632.99799	1362.76331	1393.80933	-608.18823	1185.68701	1391.53906	-826.18109	1286.97632	1462.72717	-677.90424	1395.8667	1230.12769	-639.66974	1200.65125	1154.03967	-607.07367	1092.65442	1137.02087	-505.36227	981.80212	1118.82544	-391.1246	928.08813	1165.11487	-434.49908	885.77283	1129.00159	-351.83289	849.34937	1129.32861	-683.84784	1402.67285	1551.58899	-760.77722	1217.35876	1639.57581	-775.05023	1095.84045	1653.72705	-784.65027	976.18353	1674.23804	-751.73383	827.45947	1650.43445	-807.38208	839.96967	1686.02429	-787.12024	758.19513	1691.46741	-625.45197	952.49548	1297.54565	-624.91583	965.08661	1519.04675	-782.33228	987.48859	1328.75464	-775.78937	988.91663	1497.03601	-730.39258	645.35248	1253.0813	-763.6192	483.82468	1278.31018	-846.92474	238.85405	1292.09546	-879.72058	71.47924	1346.22998	-922.50623	61.22542	1391.95789	-739.46643	39.38434	1343.427	-610.78442	639.85498	1590.62573	-559.22797	524.58081	1566.677	-564.16211	263.30875	1563.19165	-544.99725	77.93473	1522.96509	-573.55939	52.66723	1471.68762	-394.11804	48.31628	1544.31421	-692.49133	1694.3877	1384.0177	NaN	NaN	NaN	NaN	NaN	NaN	NaN	NaN	NaN	NaN	NaN	NaN	NaN	NaN	NaN	NaN	NaN	NaN	NaN	NaN	NaN
53	0.52	-585.0614	1648.71472	1326.27661	-584.42273	1642.31738	1458.15491	-720.40985	1599.10974	1328.77881	-718.0379	1597.98804	1458.34875	-726.75916	1447.14331	1387.45435	-786.73053	1121.6593	1402.27576	-623.67133	1361.24084	1394.41211	-598.80353	1184.11328	1392.01917	-816.92255	1285.32959	1462.698	-668.28448	1394.34399	1230.67249	-629.61407	1199.38611	1154.46594	-596.19177	1091.68823	1137.28906	-491.84219	983.43842	1119.3728	-376.06158	933.52905	1165.82251	-418.19171	889.78406	1130.01477	-334.12518	855.92206	1130.81848	-674.86383	1401.04895	1552.12061	-753.0578	1216.10901	1639.61414	-767.90979	1094.61548	1653.86829	-778.43378	975.15045	1674.43335	-746.11572	826.10736	1651.1073	-801.89667	839.03528	1686.39893	-782.19995	757.16302	1692.10352	-616.16467	950.94788	1297.89172	-615.52466	963.54211	1519.21753	-773.08313	985.81116	1329.01465	-766.4223	987.32745	1497.3208	-722.87823	643.97791	1253.48218	-757.74097	482.73013	1278.73523	-844.41516	238.84615	1292.27612	-879.27173	71.77373	1346.42859	-922.2276	61.77588	1392.17261	-739.29272	39.28997	1343.47009	-603.52606	637.56689	1590.8634	-551.41907	522.46539	1565.81165	-546.21808	261.73779	1563.18469	-518.4718	77.29757	1523.51257	-546.38794	52.03573	1472.26733	-366.4888	50.43689	1544.63977	-683.47229	1692.83289	1384.72205	NaN	NaN	NaN	NaN	NaN	NaN	NaN	NaN	NaN	NaN	NaN	NaN	NaN	NaN	NaN	NaN	NaN	NaN	NaN	NaN	NaN
54	0.53	-575.66663	1647.30652	1327.30811	-575.54022	1640.79236	1459.16943	-710.97852	1597.46912	1329.22522	-709.11591	1596.2738	1458.87439	-717.76398	1445.69421	1388.28748	-777.38873	1119.96851	1402.57935	-614.18994	1359.60095	1395.11365	-589.25714	1182.526	1392.63489	-807.7301	1283.62671	1462.84875	-658.64252	1392.73389	1231.28125	-619.65198	1197.98242	1154.81543	-585.33844	1090.62549	1137.51538	-478.68036	984.94702	1119.92468	-361.4791	938.5376	1167.48535	-402.01773	893.52502	1131.18469	-317.16531	862.25952	1132.02222	-665.73743	1399.34033	1552.75244	-745.12341	1214.75122	1639.76196	-760.53583	1093.37036	1654.12927	-771.64246	973.95819	1674.88904	-740.09473	824.67358	1651.89417	-795.98987	838.00281	1686.97888	-776.85565	755.93066	1692.69812	-606.92151	949.13049	1298.12341	-605.86713	961.85413	1519.46826	-763.77344	984.10907	1329.24536	-756.81067	985.75708	1497.65466	-715.32599	642.56329	1253.65735	-751.7478	481.58087	1279.01758	-841.99408	238.87262	1292.2998	-878.88812	72.13481	1346.51611	-921.93555	62.46011	1392.25208	-739.2674	39.06379	1343.61926	-595.9057	635.07538	1591.15247	-543.28204	520.36597	1565.41833	-528.8288	260.38373	1563.22009	-493.55655	76.95251	1523.75781	-520.09283	50.8263	1472.15259	-339.8537	53.67326	1544.15845	-674.39398	1691.22974	1385.41467	NaN	NaN	NaN	NaN	NaN	NaN	NaN	NaN	NaN	NaN	NaN	NaN	NaN	NaN	NaN	NaN	NaN	NaN	NaN	NaN	NaN
55	0.54	-566.2218	1645.76941	1328.33508	-566.58344	1639.19165	1460.25098	-701.43054	1595.74597	1329.73901	-700.06732	1594.50183	1459.39746	-707.85596	1443.98645	1388.88428	-767.79358	1118.22705	1402.95227	-604.54523	1358.03162	1395.87964	-579.6452	1180.8446	1393.20386	-798.21741	1281.85095	1463.0929	-648.87018	1391.06104	1231.97083	-609.55054	1196.49731	1155.27771	-574.53357	1089.54346	1137.81445	-465.42886	986.2594	1120.58215	-347.53848	943.01025	1168.828	-386.67218	897.02936	1132.34839	-300.85693	868.17389	1133.5697	-656.53308	1397.60999	1553.4325	-736.93762	1213.35693	1640.05115	-752.90564	1092.05688	1654.54614	-764.81207	972.72064	1675.3855	-733.78943	823.16187	1652.74829	-789.76166	836.88446	1687.52893	-771.07971	754.70276	1693.58533	-597.69025	947.146	1298.30457	-595.99023	960.02844	1519.69653	-754.28119	982.33759	1329.60632	-747.05389	984.00659	1498.02307	-707.66809	641.09851	1253.74182	-745.67645	480.4379	1279.24585	-839.37689	238.88364	1292.29565	-878.37103	72.54581	1346.47363	-921.63031	63.16415	1392.0813	-739.02942	38.95027	1343.61792	-587.77295	632.66901	1591.86108	-534.77386	518.17865	1565.42297	-512.24976	259.10284	1563.35559	-470.11673	76.80233	1523.66418	-495.48737	49.72936	1471.98804	-314.85175	58.33637	1543.48169	-665.18622	1689.51099	1386.1123	NaN	NaN	NaN	NaN	NaN	NaN	NaN	NaN	NaN	NaN	NaN	NaN	NaN	NaN	NaN	NaN	NaN	NaN	NaN	NaN	NaN
56	0.55	-556.52209	1644.20947	1329.45313	-557.53778	1637.54871	1461.29956	-691.79651	1593.91541	1330.27661	-690.99457	1592.62097	1459.94922	-697.93329	1442.11926	1389.55347	-758.29834	1116.46313	1403.53345	-594.84387	1356.28271	1396.70789	-569.87988	1179.12439	1393.95068	-788.79333	1280.24023	1463.47205	-639.01343	1389.31055	1232.71094	-599.47974	1195.01343	1155.78955	-563.71155	1088.39856	1138.11108	-452.66391	987.44025	1121.23669	-333.80951	947.37207	1169.948	-371.91428	900.23767	1133.573	-285.4014	873.66296	1135.01733	-647.17328	1395.80774	1554.19409	-728.54565	1211.86548	1640.44849	-745.0686	1090.67883	1655.09631	-757.53162	971.37634	1675.98047	-727.16541	821.61407	1653.72803	-783.19019	835.70575	1688.28162	-764.9743	753.33942	1694.41919	-588.04279	945.49701	1298.70386	-585.93286	958.14227	1519.88098	-744.75311	980.56165	1330.12195	-737.03882	982.203	1498.53186	-700.02618	639.61597	1253.76343	-739.47943	479.31314	1279.40259	-836.44373	238.93039	1292.14539	-877.81525	73.05022	1346.29895	-921.33594	64.19999	1391.85693	-738.83826	38.83052	1343.60461	-578.85901	630.45679	1592.86877	-525.97888	515.88202	1565.7511	-496.97757	257.78287	1563.14673	-448.30112	76.82436	1523.31934	-472.42334	48.58719	1471.61133	-291.50665	63.65026	1541.98608	-656.00317	1687.71777	1386.82922	NaN	NaN	NaN	NaN	NaN	NaN	NaN	NaN	NaN	NaN	NaN	NaN	NaN	NaN	NaN	NaN	NaN	NaN	NaN	NaN	NaN
